{"asset":{"generator":"Khronos glTF Blender I/O v5.0.21","version":"2.0"},"extensionsUsed":["KHR_materials_specular","KHR_materials_ior"],"scene":0,"scenes":[{"name":"Scene","nodes":[0]}],"nodes":[{"mesh":0,"name":"gorro","rotation":[0.7071068286895752,0,0,0.7071068286895752]}],"materials":[{"doubleSided":true,"extensions":{"KHR_materials_specular":{"specularColorFactor":[2,2,2]},"KHR_materials_ior":{"ior":1.4500000476837158}},"name":"SnowFabric","pbrMetallicRoughness":{"baseColorFactor":[0.800000011920929,0.800000011920929,0.800000011920929,1],"metallicFactor":0}},{"doubleSided":true,"name":"Velvet","pbrMetallicRoughness":{"baseColorFactor":[0.800000011920929,0.800000011920929,0.800000011920929,1],"metallicFactor":0,"roughnessFactor":0.3999999761581421}}],"meshes":[{"name":"gorro","primitives":[{"attributes":{"POSITION":0,"NORMAL":1,"TEXCOORD_0":2},"indices":3,"material":0},{"attributes":{"POSITION":4,"NORMAL":5,"TEXCOORD_0":6},"indices":7,"material":1}]}],"accessors":[{"bufferView":0,"componentType":5126,"count":3892,"max":[0.6501489877700806,0.5938779711723328,-0.00009500000305706635],"min":[-0.6474850177764893,-1.4181989431381226,-0.253915011882782],"type":"VEC3"},{"bufferView":1,"componentType":5126,"count":3892,"type":"VEC3"},{"bufferView":2,"componentType":5126,"count":3892,"type":"VEC2"},{"bufferView":3,"componentType":5123,"count":21888,"type":"SCALAR"},{"bufferView":4,"componentType":5126,"count":1839,"max":[0.5894659757614136,0.5493530035018921,-0.0842370018362999],"min":[-0.5899230241775513,-1.1246390342712402,-0.5629169940948486],"type":"VEC3"},{"bufferView":5,"componentType":5126,"count":1839,"type":"VEC3"},{"bufferView":6,"componentType":5126,"count":1839,"type":"VEC2"},{"bufferView":7,"componentType":5123,"count":9984,"type":"SCALAR"}],"bufferViews":[{"buffer":0,"byteLength":46704,"byteOffset":0,"target":34962},{"buffer":0,"byteLength":46704,"byteOffset":46704,"target":34962},{"buffer":0,"byteLength":31136,"byteOffset":93408,"target":34962},{"buffer":0,"byteLength":43776,"byteOffset":124544,"target":34963},{"buffer":0,"byteLength":22068,"byteOffset":168320,"target":34962},{"buffer":0,"byteLength":22068,"byteOffset":190388,"target":34962},{"buffer":0,"byteLength":14712,"byteOffset":212456,"target":34962},{"buffer":0,"byteLength":19968,"byteOffset":227168,"target":34963}],"buffers":[{"byteLength":247136,"uri":"data:application/octet-stream;base64,"}]}